<svg width="9" height="13" viewBox="0 0 9 13" fill="none" xmlns="http://www.w3.org/2000/svg">
<path d="M8.34805 2.22619C7.55908 0.86464 6.15772 0.0328174 4.59937 0.00102832C4.53285 -0.000342773 4.46589 -0.000342773 4.39935 0.00102832C2.84102 0.0328174 1.43966 0.86464 0.650673 2.22619C-0.155785 3.6179 -0.177849 5.28962 0.591639 6.69806L3.81531 12.5985C3.81676 12.6011 3.8182 12.6037 3.8197 12.6063C3.96153 12.8528 4.21562 13 4.49941 13C4.78318 13 5.03726 12.8528 5.17907 12.6063C5.18056 12.6037 5.18201 12.6011 5.18346 12.5985L8.40713 6.69806C9.17657 5.28962 9.1545 3.6179 8.34805 2.22619ZM4.49936 5.89064C3.49133 5.89064 2.67123 5.07055 2.67123 4.06251C2.67123 3.05448 3.49133 2.23439 4.49936 2.23439C5.50739 2.23439 6.32748 3.05448 6.32748 4.06251C6.32748 5.07055 5.50742 5.89064 4.49936 5.89064Z" fill="#3564E2"/>
</svg>
