<svg width="14" height="14" viewBox="0 0 14 14" fill="none" xmlns="http://www.w3.org/2000/svg">
<path d="M13.9631 5.36985C13.871 5.08637 13.6195 4.88567 13.3232 4.85886L9.28184 4.49195L7.68466 0.752632C7.56674 0.477908 7.29842 0.300598 6.99977 0.300598C6.70112 0.300598 6.4327 0.477908 6.31553 0.752632L4.71835 4.49195L0.67632 4.85886C0.38002 4.8862 0.129115 5.0869 0.0364013 5.36985C-0.0557786 5.65333 0.0293516 5.96427 0.253446 6.1608L3.30841 8.83957L2.40766 12.8068C2.34175 13.0985 2.45498 13.4002 2.69701 13.5751C2.82711 13.6697 2.97996 13.7169 3.13335 13.7169C3.26515 13.7169 3.39707 13.6818 3.51488 13.6114L6.99977 11.5276L10.484 13.6114C10.7396 13.7641 11.061 13.7501 11.3025 13.5751C11.5446 13.4002 11.6578 13.0985 11.5919 12.8068L10.6911 8.83957L13.7461 6.1608C13.9701 5.96427 14.0553 5.65397 13.9631 5.36985Z" fill="#DDDDDD"/>
</svg>
